<svg xmlns="http://www.w3.org/2000/svg" viewBox="0 0 400 300">
  <defs><linearGradient id="bg3" x1="0" y1="0" x2="1" y2="1"><stop offset="0%" stop-color="#f0edf6"/><stop offset="100%" stop-color="#e0d9ed"/></linearGradient></defs>
  <rect width="400" height="300" fill="url(#bg3)"/>
  <rect x="100" y="60" width="60" height="60" fill="#6f5b9e" opacity="0.85" rx="4"/>
  <rect x="160" y="60" width="60" height="60" fill="#8b7ab8" opacity="0.6" rx="4"/>
  <rect x="220" y="60" width="60" height="60" fill="#6f5b9e" opacity="0.4" rx="4"/>
  <rect x="100" y="120" width="60" height="60" fill="#8b7ab8" opacity="0.5" rx="4"/>
  <rect x="160" y="120" width="60" height="60" fill="#6f5b9e" opacity="0.9" rx="4"/>
  <rect x="220" y="120" width="60" height="60" fill="#8b7ab8" opacity="0.7" rx="4"/>
  <rect x="100" y="180" width="60" height="60" fill="#6f5b9e" opacity="0.3" rx="4"/>
  <rect x="160" y="180" width="60" height="60" fill="#8b7ab8" opacity="0.5" rx="4"/>
  <rect x="220" y="180" width="60" height="60" fill="#6f5b9e" opacity="0.7" rx="4"/>
  <line x1="100" y1="120" x2="280" y2="120" stroke="#fff" stroke-width="2"/>
  <line x1="100" y1="180" x2="280" y2="180" stroke="#fff" stroke-width="2"/>
  <line x1="160" y1="60" x2="160" y2="240" stroke="#fff" stroke-width="2"/>
  <line x1="220" y1="60" x2="220" y2="240" stroke="#fff" stroke-width="2"/>
</svg>